<svg xmlns="http://www.w3.org/2000/svg" viewBox="0 0 1200 630">
  <!-- Background -->
  <rect width="1200" height="630" fill="#0a0a0a"/>
  
  <!-- Gradient Overlay -->
  <defs>
    <linearGradient id="nftixBg" x1="0%" y1="0%" x2="100%" y2="100%">
      <stop offset="0%" style="stop-color:#ec4899;stop-opacity:0.2" />
      <stop offset="100%" style="stop-color:#f43f5e;stop-opacity:0.2" />
    </linearGradient>
  </defs>
  <rect width="1200" height="630" fill="url(#nftixBg)"/>
  
  <!-- Browser Window Mockup -->
  <g transform="translate(100, 60)">
    <!-- Window Header -->
    <rect x="0" y="0" width="1000" height="40" rx="8" fill="#1f2937"/>
    <circle cx="20" cy="20" r="6" fill="#ef4444"/>
    <circle cx="40" cy="20" r="6" fill="#fbbf24"/>
    <circle cx="60" cy="20" r="6" fill="#10b981"/>
    
    <!-- URL Bar -->
    <rect x="90" y="10" width="800" height="20" rx="10" fill="#111827"/>
    <text x="110" y="25" font-family="monospace" font-size="12" fill="#6b7280">nftix.app/marketplace</text>
    
    <!-- Window Body -->
    <rect x="0" y="40" width="1000" height="470" fill="#111827"/>
    
    <!-- App Content -->
    <!-- Header -->
    <rect x="20" y="60" width="960" height="70" rx="8" fill="#1f2937"/>
    <text x="40" y="100" font-family="'Inter', sans-serif" font-size="28" font-weight="bold" fill="#ec4899">NFTix</text>
    <text x="150" y="102" font-family="'Inter', sans-serif" font-size="14" fill="#9ca3af">Event NFT Marketplace</text>
    
    <!-- Connect Wallet Button -->
    <rect x="820" y="75" width="140" height="40" rx="20" fill="rgba(236,72,153,0.2)" stroke="#ec4899" stroke-width="2"/>
    <text x="890" y="100" font-family="'Inter', sans-serif" font-size="14" font-weight="600" fill="#ec4899" text-anchor="middle">🦊 Connect</text>
    
    <!-- NFT Ticket Cards Grid -->
    <g transform="translate(40, 150)">
      <!-- Card 1 -->
      <g>
        <rect x="0" y="0" width="220" height="320" rx="12" fill="#1f2937" stroke="#374151" stroke-width="2"/>
        
        <!-- Ticket Image -->
        <rect x="10" y="10" width="200" height="200" rx="8" fill="url(#nftixBg)"/>
        <rect x="10" y="10" width="200" height="200" rx="8" fill="rgba(236,72,153,0.1)"/>
        
        <!-- Event Icon/Barcode -->
        <g transform="translate(110, 90)">
          <circle cx="0" cy="0" r="40" fill="rgba(236,72,153,0.3)" stroke="#ec4899" stroke-width="3"/>
          <text x="0" y="10" font-family="'Inter', sans-serif" font-size="32" fill="#ec4899" text-anchor="middle">🎫</text>
        </g>
        
        <!-- Mini Barcode -->
        <g transform="translate(60, 180)">
          <rect x="0" y="0" width="3" height="20" fill="#ec4899"/>
          <rect x="6" y="0" width="2" height="20" fill="#ec4899"/>
          <rect x="11" y="0" width="4" height="20" fill="#ec4899"/>
          <rect x="18" y="0" width="2" height="20" fill="#ec4899"/>
          <rect x="23" y="0" width="3" height="20" fill="#ec4899"/>
          <rect x="29" y="0" width="2" height="20" fill="#ec4899"/>
          <rect x="34" y="0" width="4" height="20" fill="#ec4899"/>
          <rect x="41" y="0" width="3" height="20" fill="#ec4899"/>
          <rect x="47" y="0" width="2" height="20" fill="#ec4899"/>
          <rect x="52" y="0" width="3" height="20" fill="#ec4899"/>
          <rect x="58" y="0" width="4" height="20" fill="#ec4899"/>
          <rect x="65" y="0" width="2" height="20" fill="#ec4899"/>
          <rect x="70" y="0" width="3" height="20" fill="#ec4899"/>
          <rect x="76" y="0" width="2" height="20" fill="#ec4899"/>
          <rect x="81" y="0" width="4" height="20" fill="#ec4899"/>
          <rect x="88" y="0" width="2" height="20" fill="#ec4899"/>
          <rect x="93" y="0" width="3" height="20" fill="#ec4899"/>
        </g>
        
        <!-- Info -->
        <text x="15" y="235" font-family="'Inter', sans-serif" font-size="16" font-weight="bold" fill="#ffffff">Tech Summit 2025</text>
        <text x="15" y="255" font-family="'Inter', sans-serif" font-size="12" fill="#9ca3af">March 15, 2025</text>
        <text x="15" y="280" font-family="'Inter', sans-serif" font-size="18" font-weight="bold" fill="#ec4899">0.05 ETH</text>
        <text x="15" y="300" font-family="'Inter', sans-serif" font-size="11" fill="#10b981">✓ Verified</text>
      </g>
      
      <!-- Card 2 -->
      <g transform="translate(240, 0)">
        <rect x="0" y="0" width="220" height="320" rx="12" fill="#1f2937" stroke="#374151" stroke-width="2"/>
        
        <!-- Ticket Image -->
        <rect x="10" y="10" width="200" height="200" rx="8" fill="linear-gradient(135deg, #f43f5e 0%, #ec4899 100%)"/>
        <rect x="10" y="10" width="200" height="200" rx="8" fill="rgba(244,63,94,0.15)"/>
        
        <g transform="translate(110, 90)">
          <circle cx="0" cy="0" r="40" fill="rgba(244,63,94,0.3)" stroke="#f43f5e" stroke-width="3"/>
          <text x="0" y="10" font-family="'Inter', sans-serif" font-size="32" fill="#f43f5e" text-anchor="middle">🎵</text>
        </g>
        
        <g transform="translate(60, 180)">
          <rect x="0" y="0" width="2" height="20" fill="#f43f5e"/>
          <rect x="5" y="0" width="3" height="20" fill="#f43f5e"/>
          <rect x="11" y="0" width="2" height="20" fill="#f43f5e"/>
          <rect x="16" y="0" width="4" height="20" fill="#f43f5e"/>
          <rect x="23" y="0" width="2" height="20" fill="#f43f5e"/>
          <rect x="28" y="0" width="3" height="20" fill="#f43f5e"/>
          <rect x="34" y="0" width="2" height="20" fill="#f43f5e"/>
          <rect x="39" y="0" width="4" height="20" fill="#f43f5e"/>
          <rect x="46" y="0" width="3" height="20" fill="#f43f5e"/>
          <rect x="52" y="0" width="2" height="20" fill="#f43f5e"/>
          <rect x="57" y="0" width="3" height="20" fill="#f43f5e"/>
          <rect x="63" y="0" width="4" height="20" fill="#f43f5e"/>
          <rect x="70" y="0" width="2" height="20" fill="#f43f5e"/>
          <rect x="75" y="0" width="3" height="20" fill="#f43f5e"/>
          <rect x="81" y="0" width="2" height="20" fill="#f43f5e"/>
          <rect x="86" y="0" width="4" height="20" fill="#f43f5e"/>
          <rect x="93" y="0" width="2" height="20" fill="#f43f5e"/>
        </g>
        
        <text x="15" y="235" font-family="'Inter', sans-serif" font-size="16" font-weight="bold" fill="#ffffff">Music Festival</text>
        <text x="15" y="255" font-family="'Inter', sans-serif" font-size="12" fill="#9ca3af">April 20, 2025</text>
        <text x="15" y="280" font-family="'Inter', sans-serif" font-size="18" font-weight="bold" fill="#f43f5e">0.08 ETH</text>
        <text x="15" y="300" font-family="'Inter', sans-serif" font-size="11" fill="#10b981">✓ Verified</text>
      </g>
      
      <!-- Card 3 -->
      <g transform="translate(480, 0)">
        <rect x="0" y="0" width="220" height="320" rx="12" fill="#1f2937" stroke="#374151" stroke-width="2"/>
        
        <rect x="10" y="10" width="200" height="200" rx="8" fill="linear-gradient(135deg, #be123c 0%, #ec4899 100%)"/>
        <rect x="10" y="10" width="200" height="200" rx="8" fill="rgba(190,18,60,0.15)"/>
        
        <g transform="translate(110, 90)">
          <circle cx="0" cy="0" r="40" fill="rgba(190,18,60,0.3)" stroke="#be123c" stroke-width="3"/>
          <text x="0" y="10" font-family="'Inter', sans-serif" font-size="32" fill="#be123c" text-anchor="middle">🏀</text>
        </g>
        
        <g transform="translate(60, 180)">
          <rect x="0" y="0" width="3" height="20" fill="#be123c"/>
          <rect x="6" y="0" width="2" height="20" fill="#be123c"/>
          <rect x="11" y="0" width="4" height="20" fill="#be123c"/>
          <rect x="18" y="0" width="2" height="20" fill="#be123c"/>
          <rect x="23" y="0" width="3" height="20" fill="#be123c"/>
          <rect x="29" y="0" width="4" height="20" fill="#be123c"/>
          <rect x="36" y="0" width="2" height="20" fill="#be123c"/>
          <rect x="41" y="0" width="3" height="20" fill="#be123c"/>
          <rect x="47" y="0" width="2" height="20" fill="#be123c"/>
          <rect x="52" y="0" width="4" height="20" fill="#be123c"/>
          <rect x="59" y="0" width="3" height="20" fill="#be123c"/>
          <rect x="65" y="0" width="2" height="20" fill="#be123c"/>
          <rect x="70" y="0" width="3" height="20" fill="#be123c"/>
          <rect x="76" y="0" width="4" height="20" fill="#be123c"/>
          <rect x="83" y="0" width="2" height="20" fill="#be123c"/>
          <rect x="88" y="0" width="3" height="20" fill="#be123c"/>
          <rect x="94" y="0" width="2" height="20" fill="#be123c"/>
        </g>
        
        <text x="15" y="235" font-family="'Inter', sans-serif" font-size="16" font-weight="bold" fill="#ffffff">Sports Match</text>
        <text x="15" y="255" font-family="'Inter', sans-serif" font-size="12" fill="#9ca3af">May 10, 2025</text>
        <text x="15" y="280" font-family="'Inter', sans-serif" font-size="18" font-weight="bold" fill="#be123c">0.03 ETH</text>
        <text x="15" y="300" font-family="'Inter', sans-serif" font-size="11" fill="#10b981">✓ Verified</text>
      </g>
      
      <!-- Card 4 -->
      <g transform="translate(720, 0)">
        <rect x="0" y="0" width="220" height="320" rx="12" fill="#1f2937" stroke="#ec4899" stroke-width="3"/>
        <rect x="10" y="10" width="200" height="200" rx="8" fill="linear-gradient(135deg, #ec4899 0%, #f43f5e 100%)"/>
        <rect x="10" y="10" width="200" height="200" rx="8" fill="rgba(236,72,153,0.2)"/>
        
        <g transform="translate(110, 90)">
          <circle cx="0" cy="0" r="40" fill="rgba(236,72,153,0.4)" stroke="#ec4899" stroke-width="3"/>
          <text x="0" y="5" font-family="'Inter', sans-serif" font-size="24" fill="#ffffff" text-anchor="middle" font-weight="bold">+</text>
        </g>
        
        <text x="110" y="235" font-family="'Inter', sans-serif" font-size="14" font-weight="600" fill="#9ca3af" text-anchor="middle">Create Event</text>
        <text x="110" y="260" font-family="'Inter', sans-serif" font-size="12" fill="#6b7280" text-anchor="middle">Mint NFT Tickets</text>
      </g>
    </g>
  </g>
  
  <!-- Tech Stack Badges at Bottom -->
  <g transform="translate(150, 560)">
    <rect x="0" y="0" width="100" height="30" rx="15" fill="rgba(236,72,153,0.2)" stroke="#ec4899" stroke-width="1.5"/>
    <text x="50" y="20" font-family="'Inter', sans-serif" font-size="12" font-weight="600" fill="#f472b6" text-anchor="middle">Solidity</text>
    
    <rect x="120" y="0" width="100" height="30" rx="15" fill="rgba(244,63,94,0.2)" stroke="#f43f5e" stroke-width="1.5"/>
    <text x="170" y="20" font-family="'Inter', sans-serif" font-size="12" font-weight="600" fill="#fb7185" text-anchor="middle">Hardhat</text>
    
    <rect x="240" y="0" width="90" height="30" rx="15" fill="rgba(190,18,60,0.2)" stroke="#be123c" stroke-width="1.5"/>
    <text x="285" y="20" font-family="'Inter', sans-serif" font-size="12" font-weight="600" fill="#fb7185" text-anchor="middle">Next.js</text>
    
    <rect x="350" y="0" width="100" height="30" rx="15" fill="rgba(16,185,129,0.2)" stroke="#10b981" stroke-width="1.5"/>
    <text x="400" y="20" font-family="'Inter', sans-serif" font-size="12" font-weight="600" fill="#10b981" text-anchor="middle">Ethers.js</text>
  </g>
</svg>
