<svg xmlns="http://www.w3.org/2000/svg" viewBox="0 0 1200 630">
  <defs>
    <linearGradient id="orbitBg" x1="0%" y1="0%" x2="100%" y2="100%">
      <stop offset="0%" style="stop-color:#6366f1;stop-opacity:0.3" />
      <stop offset="100%" style="stop-color:#8b5cf6;stop-opacity:0.3" />
    </linearGradient>
  </defs>
  
  <rect width="1200" height="630" fill="#0a0a0a"/>
  <rect width="1200" height="630" fill="url(#orbitBg)"/>
  
  <!-- Data Visualization Background -->
  <g opacity="0.15">
    <path d="M 100,500 L 200,450 L 300,480 L 400,420 L 500,460 L 600,400 L 700,430 L 800,380 L 900,410 L 1000,370" 
          stroke="#6366f1" stroke-width="3" fill="none"/>
    <path d="M 100,520 L 200,490 L 300,510 L 400,470 L 500,500 L 600,450 L 700,480 L 800,430 L 900,460 L 1000,420" 
          stroke="#8b5cf6" stroke-width="3" fill="none"/>
  </g>
  
  <!-- Chart Visualization Icon -->
  <g transform="translate(850, 220)">
    <circle cx="0" cy="0" r="140" fill="rgba(99,102,241,0.1)"/>
    
    <!-- Bar Chart -->
    <g transform="translate(-60, -40)">
      <rect x="0" y="40" width="25" height="60" rx="4" fill="#6366f1" opacity="0.8"/>
      <rect x="35" y="20" width="25" height="80" rx="4" fill="#8b5cf6" opacity="0.8"/>
      <rect x="70" y="50" width="25" height="50" rx="4" fill="#6366f1" opacity="0.8"/>
      <rect x="105" y="10" width="25" height="90" rx="4" fill="#8b5cf6" opacity="0.8"/>
    </g>
    
    <!-- Real-time Indicator -->
    <circle cx="80" cy="-80" r="8" fill="#10b981">
      <animate attributeName="opacity" values="1;0.3;1" dur="1.5s" repeatCount="indefinite"/>
    </circle>
    <text x="95" y="-73" font-family="'Inter', sans-serif" font-size="14" font-weight="600" fill="#10b981">LIVE</text>
  </g>
  
  <g transform="translate(120, 180)">
    <text x="0" y="0" font-family="'Inter', sans-serif" font-size="72" font-weight="bold" fill="#ffffff">Orbit-Flash</text>
    <text x="0" y="75" font-family="'Inter', sans-serif" font-size="40" font-weight="600" fill="#6366f1">Data Visualization</text>
    <text x="0" y="125" font-family="'Inter', sans-serif" font-size="24" fill="#9ca3af">Real-time Analytics Dashboard</text>
    
    <!-- Features -->
    <g transform="translate(0, 180)" font-family="'Inter', sans-serif" font-size="20" fill="#d1d5db">
      <text x="0" y="0">📊 Interactive Charts & Graphs</text>
      <text x="0" y="45">⚡ Live Data Streaming</text>
      <text x="0" y="90">🎯 Custom Visualizations</text>
      <text x="0" y="135">🔄 Real-time Updates</text>
    </g>
  </g>
  
  <g transform="translate(150, 560)">
    <rect x="0" y="0" width="90" height="30" rx="15" fill="rgba(99,102,241,0.2)" stroke="#6366f1" stroke-width="1.5"/>
    <text x="45" y="20" font-family="'Inter', sans-serif" font-size="12" font-weight="600" fill="#818cf8" text-anchor="middle">Next.js</text>
    
    <rect x="110" y="0" width="80" height="30" rx="15" fill="rgba(139,92,246,0.2)" stroke="#8b5cf6" stroke-width="1.5"/>
    <text x="150" y="20" font-family="'Inter', sans-serif" font-size="12" font-weight="600" fill="#a78bfa" text-anchor="middle">D3.js</text>
    
    <rect x="210" y="0" width="120" height="30" rx="15" fill="rgba(99,102,241,0.2)" stroke="#6366f1" stroke-width="1.5"/>
    <text x="270" y="20" font-family="'Inter', sans-serif" font-size="12" font-weight="600" fill="#818cf8" text-anchor="middle">WebSocket</text>
  </g>
</svg>
